# xmcd
#
# Track frame offsets:
#	150
#	16945
#	31088
#	50229
#	69655
#	95970
#	117478
#	130601
#	149069
#	170884
#
# Disc length: 2595 seconds
# Revision: 0
# Processed by: cddbd v1.5.2PL0 Copyright (c) Steve Scherf et al.
# Submitted via: dBpowerAMP V12.0
#
DISCID=9a0a210a
DTITLE=The Coffis Brothers and The Mountain Men - The Coffis Brothers and The Mountain Men
DYEAR=2011
DGENRE=Folk
TTITLE0=Shape I'm In
TTITLE1=Down to the Wire
TTITLE2=Love on My Side
TTITLE3=Gimme More
TTITLE4='Round Here
TTITLE5=All I Need
TTITLE6=Down on You
TTITLE7=You Can Run
TTITLE8=Think Twice
TTITLE9=In My Dreams
EXTD=
EXTT0=
EXTT1=
EXTT2=
EXTT3=
EXTT4=
EXTT5=
EXTT6=
EXTT7=
EXTT8=
EXTT9=
PLAYORDER=
